<svg xmlns="http://www.w3.org/2000/svg" class="difficulty-face" viewBox="0 0 96 96" aria-hidden="true"><defs><linearGradient id="skin1" x2=".6" y2="1"><stop stop-color="#ffe0a6"/><stop offset="1" stop-color="#bf7759"/></linearGradient><radialGradient id="bg1"><stop stop-color="#5e3430"/><stop offset="1" stop-color="#1c1516"/></radialGradient></defs><rect x="1" y="1" width="94" height="94" rx="5" fill="url(#bg1)" stroke="#744b36"/><path d="M10 96Q14 76 48 78Q81 76 86 96" fill="#7293aa"/><g stroke="#38282b" stroke-width="2" stroke-linecap="round" stroke-linejoin="round"><ellipse cx="20" cy="48" rx="5" ry="8" fill="#c98b65"/><ellipse cx="76" cy="48" rx="5" ry="8" fill="#c98b65"/><path d="M22 27Q25 15 48 15Q73 15 75 29L73 61Q69 80 48 82Q27 80 23 62Z" fill="url(#skin1)"/><path d="M21 29Q18 7 46 9Q75 4 77 29L62 23L55 15L43 23L30 18Z" fill="#56342c"/><ellipse cx="35" cy="42" rx="7" ry="6" fill="#fff2d1"/><ellipse cx="61" cy="42" rx="7" ry="6" fill="#fff2d1"/><circle cx="35" cy="43" r="2.6"/><circle cx="61" cy="43" r="2.6"/><path d="M47 44L43 55L51 56" fill="none"/><path d="M36 66Q48 71 61 65" fill="none"/></g></svg>
