<svg xmlns="http://www.w3.org/2000/svg" class="difficulty-face" viewBox="0 0 96 96" aria-hidden="true"><defs><linearGradient id="skin4" x2=".6" y2="1"><stop stop-color="#ffe0a6"/><stop offset="1" stop-color="#bf7759"/></linearGradient><radialGradient id="bg4"><stop stop-color="#5e3430"/><stop offset="1" stop-color="#1c1516"/></radialGradient></defs><rect x="1" y="1" width="94" height="94" rx="5" fill="url(#bg4)" stroke="#744b36"/><path d="M10 96Q14 76 48 78Q81 76 86 96" fill="#64577d"/><g stroke="#38282b" stroke-width="2" stroke-linecap="round" stroke-linejoin="round"><ellipse cx="20" cy="48" rx="5" ry="8" fill="#c98b65"/><ellipse cx="76" cy="48" rx="5" ry="8" fill="#c98b65"/><path d="M22 27Q25 15 48 15Q73 15 75 29L73 61Q69 80 48 82Q27 80 23 62Z" fill="url(#skin4)"/><path d="M24 24Q22 7 49 9Q75 10 73 24M36 17L35 4M49 15L49 2M63 19L66 7" fill="none"/><ellipse cx="35" cy="42" rx="7" ry="6" fill="#fff2d1"/><ellipse cx="61" cy="42" rx="7" ry="6" fill="#fff2d1"/><circle cx="35" cy="43" r="2.6"/><circle cx="61" cy="43" r="2.6"/><path d="M26 29L40 32M56 32L70 29"/><path d="M47 44L43 55L51 56" fill="none"/><path d="M36 65Q48 70 61 64" fill="none"/><path d="M40 66H55V78H40Z" fill="#fff2d1"/><path d="M48 67V78"/><g fill="none" stroke="#d7ecea" stroke-width="3"><circle cx="34" cy="43" r="14"/><circle cx="62" cy="43" r="14"/><path d="M48 42h1M20 39L14 31M76 39L82 31"/></g></g></svg>
